<?xml version="1.0" encoding="UTF-8"?>
<svg version="1.1" xmlns="http://www.w3.org/2000/svg" width="1024" height="1024">
<path d="M0 0 C1.32387818 3.96129174 1.06537589 7.94470241 1 12.0625 C0.79357907 41.20341392 0.79357907 41.20341392 15.375 65.75 C25.51935318 75.29892375 37.66485644 78.64522324 51.40014648 78.47021484 C63.52243893 77.98795366 74.5937212 73.30788885 83.2890625 64.74609375 C96.7730888 49.01472973 96.2488649 30.22899855 96.01489258 10.63891602 C96.00095459 9.40971436 95.9870166 8.1805127 95.97265625 6.9140625 C95.95468994 5.7998291 95.93672363 4.6855957 95.91821289 3.53759766 C96 1 96 1 97 0 C99.4915272 -0.09772312 101.95530508 -0.12995818 104.44728088 -0.12025452 C105.63075093 -0.12153615 105.63075093 -0.12153615 106.83812946 -0.12284368 C109.50221627 -0.12450089 112.16624118 -0.11897321 114.83032227 -0.11352539 C116.73192341 -0.11324354 118.63352466 -0.1134012 120.53512573 -0.1139679 C125.71466284 -0.11425597 130.89417701 -0.10835763 136.07370877 -0.10139394 C141.48028527 -0.09516206 146.88686224 -0.09455673 152.29344177 -0.09336853 C162.53925291 -0.09025472 172.78505343 -0.08204067 183.03085989 -0.07201904 C194.69208663 -0.06085943 206.35331386 -0.05534784 218.01454461 -0.05032361 C242.0097023 -0.0398581 266.00485056 -0.0222577 290 0 C290.01981934 0.93682617 290.03963867 1.87365234 290.06005859 2.83886719 C290.13896791 6.37278397 290.22567911 9.90634201 290.31738281 13.43994141 C290.35525659 14.95842325 290.3901751 16.4769822 290.421875 17.99560547 C290.80858737 36.30401908 292.44259654 53.29576546 306 67 C315.44907784 74.91402909 326.2193255 78.18875354 338.375 78.125 C339.46941406 78.13080078 339.46941406 78.13080078 340.5859375 78.13671875 C345.13298593 78.12859902 349.52680514 77.9131328 354 77 C354.33 76.34 354.66 75.68 355 75 C355.845625 74.731875 356.69125 74.46375 357.5625 74.1875 C361.84570332 72.70784794 365.2655858 70.52850961 369 68 C369.845625 67.443125 370.69125 66.88625 371.5625 66.3125 C379.9190497 58.38449131 384.18738086 48.25889364 386 37 C386.07053753 34.21447292 386.09295879 31.45597142 386.0625 28.671875 C386.05871338 27.88226379 386.05492676 27.09265259 386.05102539 26.27911377 C386.03885324 23.76935252 386.02020854 21.25970862 386 18.75 C385.97350882 15.43229509 385.95348802 12.11464521 385.9375 8.796875 C385.92505249 7.64696075 385.92505249 7.64696075 385.91235352 6.47381592 C385.9037978 4.64899679 385.94664934 2.82405915 386 1 C387.78866801 -0.78866801 390.32642411 -0.21586513 392.75 -0.25 C418.31393666 0.01059059 439.46593521 6.78438993 458 25 C458.62648438 25.61359375 459.25296875 26.2271875 459.8984375 26.859375 C476.0646728 43.97656532 480.16495741 66.76723896 480.13371277 89.45953369 C480.1371111 91.28900642 480.1371111 91.28900642 480.14057809 93.15543818 C480.14578629 96.51490451 480.14656763 99.874317 480.14538372 103.23378348 C480.14517861 106.86717846 480.15070886 110.50056563 480.15544128 114.13395691 C480.16372461 121.24269284 480.16649507 128.35142047 480.16705366 135.46016082 C480.16752991 141.24212613 480.16959005 147.02408872 480.17275429 152.80605316 C480.18155438 169.22197477 480.18617465 185.63788986 480.18542381 202.05381384 C480.18536388 203.37948312 480.18536388 203.37948312 480.18530273 204.73193359 C480.18524141 206.05923328 480.18524141 206.05923328 480.18517885 207.4133471 C480.18477252 221.74925367 480.1943405 236.08513396 480.2084411 250.42103294 C480.22282651 265.16356077 480.2297101 279.9060758 480.22884732 294.64861083 C480.22851611 302.91636882 480.23122992 311.18409925 480.24202538 319.45185089 C480.25115889 326.49153957 480.25328229 333.5311882 480.24651595 340.57088026 C480.24326514 344.15743412 480.24314159 347.74391126 480.2518692 351.33045769 C480.26126313 355.23118395 480.25492074 359.13179993 480.24723816 363.03253174 C480.25238172 364.1483243 480.25752529 365.26411686 480.26282471 366.41372132 C480.15409727 391.55154017 472.67845879 411.32154121 454.84765625 429.15234375 C440.20151745 442.95096638 422.4767663 448.13849266 402.79296875 448.58984375 C401.55001541 448.62106827 400.30706207 448.65229279 399.02644348 448.6844635 C396.41365732 448.74563275 393.80074596 448.80164909 391.18774414 448.8527832 C388.51128581 448.90582777 385.836052 448.97542952 383.16040039 449.05981445 C379.28806761 449.17814957 375.41632323 449.26311481 371.54296875 449.33984375 C369.74607857 449.4019529 369.74607857 449.4019529 367.91288757 449.46531677 C359.65767995 449.56884195 359.65767995 449.56884195 356.3503418 446.70825195 C355.904729 445.81452881 355.45911621 444.92080566 355 444 C354.60893066 443.37512695 354.21786133 442.75025391 353.81494141 442.10644531 C353.49702637 441.51959961 353.17911133 440.93275391 352.8515625 440.328125 C352.48861084 439.6676416 352.12565918 439.0071582 351.75170898 438.32666016 C351.19398804 437.29871338 351.19398804 437.29871338 350.625 436.25 C347.65131193 430.84676383 344.57941119 425.63180215 340.99609375 420.6015625 C340 419 340 419 340 417 C339.34 417 338.68 417 338 417 C338.33 416.01 338.66 415.02 339 414 C340.27547699 414.00999275 340.27547699 414.00999275 341.57672119 414.02018738 C349.63739942 414.0805991 357.69800029 414.12612599 365.75885391 414.15543652 C369.90183516 414.17101253 374.04462745 414.19210097 378.1875 414.22631836 C382.1945961 414.25920267 386.20151185 414.27691345 390.2087326 414.28463173 C391.72835881 414.2901236 393.24797649 414.30084592 394.76752472 414.31719017 C410.02331046 414.47457552 423.02063853 412.39805953 434.75 401.875 C448.45904656 387.09645336 446.28480559 366.40957908 446.22705078 347.7487793 C446.22643742 345.15400861 446.22670627 342.55923759 446.2277813 339.96446705 C446.22883894 333.74330816 446.21965994 327.52220763 446.20677864 321.30106368 C446.1923098 314.09576787 446.19078538 306.89049204 446.18920898 299.68518066 C446.17873243 280.68594461 446.15080997 261.68672141 446.125 242.6875 C446.08375 200.220625 446.0425 157.75375 446 114 C279.35 114 112.7 114 -59 114 C-58.9175 157.291875 -58.835 200.58375 -58.75 245.1875 C-58.73420898 258.8518042 -58.71841797 272.5161084 -58.70214844 286.59448242 C-58.66892435 298.8541111 -58.66892435 298.8541111 -58.63043213 311.11372375 C-58.61344234 316.56985188 -58.60723845 322.02586523 -58.60845947 327.48200989 C-58.60983174 333.78188043 -58.59729917 340.08154474 -58.56796111 346.38134982 C-58.55339743 349.60066667 -58.54706815 352.81960471 -58.55417585 356.03895605 C-58.58765845 373.40809156 -58.55254099 388.85014536 -45.9296875 402.1875 C-33.62300631 413.85097486 -19.26099792 414.31467975 -3.05078125 414.1953125 C-1.54192799 414.19157333 -0.03307227 414.18873064 1.4757843 414.18673706 C5.40976902 414.17917162 9.34360149 414.15958582 13.27752686 414.1373291 C17.30674176 414.11671617 21.33598173 414.10770262 25.36523438 414.09765625 C33.24355875 414.07633177 41.12176033 414.0422837 49 414 C48.13384472 417.9617868 46.33911714 421.03022922 44.21875 424.4453125 C43.84520386 425.05639862 43.47165771 425.66748474 43.08679199 426.29708862 C41.89609216 428.24277919 40.69828803 430.18397544 39.5 432.125 C38.30326276 434.07408188 37.10798052 436.02404797 35.91320801 437.97433472 C35.17013896 439.18611903 34.42563704 440.3970261 33.67956543 441.60696411 C32.38432433 443.71101493 31.10559673 445.78880654 30 448 C22.21203047 448.10261565 14.42423936 448.17196781 6.63574219 448.21972656 C3.99381074 448.23737956 1.35278365 448.26682322 -1.2890625 448.30175781 C-31.76164328 448.69420772 -31.76164328 448.69420772 -45 444 C-45.33 443.34 -45.66 442.68 -46 442 C-47.32064453 441.56880859 -47.32064453 441.56880859 -48.66796875 441.12890625 C-64.48155889 435.77119517 -77.40719104 420.21225034 -84.640625 405.7109375 C-86.37447385 401.69518413 -87.83966196 398.05347103 -88.5 393.71484375 C-88.665 392.81894531 -88.83 391.92304687 -89 391 C-89.66 390.67 -90.32 390.34 -91 390 C-92.39919931 381.4985228 -92.14703214 372.63713775 -92.14044189 364.04130554 C-92.14341302 362.80417071 -92.14638414 361.56703587 -92.1494453 360.2924121 C-92.1565583 356.89798101 -92.15929929 353.5036006 -92.16004276 350.10916579 C-92.16191053 346.43283831 -92.16946598 342.75652143 -92.17617798 339.0802002 C-92.18968913 331.0615579 -92.19577394 323.04292065 -92.20018864 315.02426887 C-92.20296185 310.00899956 -92.20720096 304.99373215 -92.21169281 299.97846413 C-92.22387324 286.06644532 -92.23417677 272.15442801 -92.2375679 258.24240398 C-92.23778747 257.35419934 -92.23800703 256.4659947 -92.23823325 255.55087476 C-92.23845153 254.66067817 -92.23866981 253.77048158 -92.2388947 252.85330933 C-92.23933815 251.04974854 -92.23978471 249.24618775 -92.24023438 247.44262695 C-92.2404558 246.54801916 -92.24067723 245.65341137 -92.24090537 244.73169426 C-92.24485356 230.23565445 -92.26231371 215.7396649 -92.2855939 201.2436445 C-92.3093546 186.32699 -92.3217718 171.41036069 -92.32293582 156.49368697 C-92.32384963 148.13199576 -92.32952798 139.77037017 -92.34775543 131.40869713 C-92.36321991 124.29007522 -92.36823946 117.17153926 -92.36001733 110.05290373 C-92.35613393 106.42756439 -92.35692622 102.80239779 -92.37107468 99.17708015 C-92.47576507 70.67303575 -89.69604742 45.12893098 -68.8046875 23.75 C-49.42677855 4.74993328 -26.51547974 -0.34837857 0 0 Z " fill="#34B4F3" transform="translate(318,192)"/>
<path d="M0 0 C0.56203125 0.42152344 1.1240625 0.84304688 1.703125 1.27734375 C7.74239809 5.83669596 7.74239809 5.83669596 10 8 C10 8.66 10 9.32 10 10 C10.55429687 10.22171875 11.10859375 10.4434375 11.6796875 10.671875 C25.63100269 18.65747629 35.59098017 38.28330112 43 52 C43.67289063 53.18722656 43.67289063 53.18722656 44.359375 54.3984375 C51.74890147 68.07385986 56.06337621 83.80383336 59 99 C59.22558594 100.13566406 59.45117188 101.27132812 59.68359375 102.44140625 C66.62438826 144.51698123 55.47131086 187.64578963 31.125 222.25 C24.88493328 230.90490386 17.53336664 238.46663336 10 246 C9.43539063 246.61101562 8.87078125 247.22203125 8.2890625 247.8515625 C-1.66687668 258.46188266 -14.24566719 266.2106783 -27 273 C-27.98355469 273.53238281 -28.96710938 274.06476563 -29.98046875 274.61328125 C-52.45076211 286.34877859 -76.38388575 291.42952137 -101.625 291.3125 C-102.81687927 291.31026428 -102.81687927 291.31026428 -104.03283691 291.3079834 C-115.94021299 291.26782665 -127.35916048 290.67247852 -139 288 C-140.3266191 287.72946737 -141.65344281 287.45993615 -142.98046875 287.19140625 C-179.26676188 279.40269299 -211.38336283 256.97756637 -234 228 C-234.78375 227.00613281 -235.5675 226.01226563 -236.375 224.98828125 C-248.14901313 209.57688395 -256.96909831 191.71239622 -262 173 C-262.19529297 172.29665527 -262.39058594 171.59331055 -262.59179688 170.86865234 C-273.64958394 130.10935137 -267.6702733 84.43594226 -247.1328125 47.6328125 C-243.78757481 41.82884055 -239.99716609 36.3757381 -236 31 C-235.34902344 30.1234375 -234.69804687 29.246875 -234.02734375 28.34375 C-210.78040858 -1.39799365 -180.99183049 -19.42678887 -145.53515625 -30.8359375 C-142.20084343 -31.83914722 -142.20084343 -31.83914722 -140 -33 C-137.5406931 -33.37564592 -135.09432505 -33.7073182 -132.625 -34 C-131.90038574 -34.08685059 -131.17577148 -34.17370117 -130.42919922 -34.26318359 C-128.28683254 -34.5154216 -126.14370193 -34.75940147 -124 -35 C-122.46859375 -35.17402344 -122.46859375 -35.17402344 -120.90625 -35.3515625 C-76.86076111 -39.68187742 -35.04891151 -26.47311401 0 0 Z M-163.80786133 4.66821289 C-164.70734497 5.32744751 -164.70734497 5.32744751 -165.625 6 C-166.26526123 6.44915771 -166.90552246 6.89831543 -167.56518555 7.36108398 C-169.72501218 8.88756057 -171.86224998 10.4427817 -174 12 C-175.61830044 13.1578165 -177.23679549 14.31536102 -178.85546875 15.47265625 C-186.54532091 21.01625658 -194.09963408 26.5703017 -200.97265625 33.1171875 C-203.45380664 35.42145433 -206.1333246 37.3968337 -208.91796875 39.3203125 C-210.68897353 42.0695257 -209.63812072 44.95143597 -209 48 C-208.14196513 51.21491491 -207.14463346 54.37868913 -206.12890625 57.546875 C-205.84651596 58.43989319 -205.56412567 59.33291138 -205.2731781 60.25299072 C-204.6782239 62.12964133 -204.08052405 64.00542347 -203.48022461 65.88037109 C-202.56170952 68.75247175 -201.65430463 71.62791749 -200.74804688 74.50390625 C-200.16732517 76.3309386 -199.58596707 78.15776883 -199.00390625 79.984375 C-198.73300674 80.84375671 -198.46210724 81.70313843 -198.18299866 82.58856201 C-197.92610764 83.38659241 -197.66921661 84.1846228 -197.40454102 85.00683594 C-197.18105484 85.70742126 -196.95756866 86.40800659 -196.72731018 87.12982178 C-195.96770466 89.2817943 -195.96770466 89.2817943 -194 92 C-191.56644715 92.98343224 -189.23131218 93.79993377 -186.7265625 94.55078125 C-186.00640961 94.7732402 -185.28625671 94.99569916 -184.54428101 95.22489929 C-183.02111327 95.69167717 -181.49619948 96.15278956 -179.96972656 96.60864258 C-177.63504955 97.30948325 -175.30997487 98.03725903 -172.984375 98.76757812 C-171.50310777 99.21780606 -170.02135126 99.66642801 -168.5390625 100.11328125 C-167.84414703 100.33293045 -167.14923157 100.55257965 -166.43325806 100.77888489 C-162.63584686 101.89138387 -162.63584686 101.89138387 -158.80297852 101.32250977 C-157.91050415 100.66786743 -157.91050415 100.66786743 -157 100 C-156.30302002 99.50322754 -155.60604004 99.00645508 -154.88793945 98.49462891 C-153.76198364 97.61943604 -153.76198364 97.61943604 -152.61328125 96.7265625 C-151.76507813 96.07204102 -150.916875 95.41751953 -150.04296875 94.74316406 C-149.14191406 94.04416992 -148.24085938 93.34517578 -147.3125 92.625 C-139.79864935 86.84090039 -132.21148893 81.21044815 -124.41918945 75.80712891 C-123.45372192 75.13689697 -123.45372192 75.13689697 -122.46875 74.453125 C-121.91638672 74.07317383 -121.36402344 73.69322266 -120.79492188 73.30175781 C-120.20259766 72.87217773 -119.61027344 72.44259766 -119 72 C-118.11497803 71.46149414 -117.22995605 70.92298828 -116.31811523 70.36816406 C-113.5889157 67.58004026 -113.4142421 65.84180197 -113.38221741 62.00817871 C-113.40174973 61.23204224 -113.42128204 60.45590576 -113.44140625 59.65625 C-113.44373764 58.85014282 -113.44606903 58.04403564 -113.44847107 57.21350098 C-113.45819802 55.5121805 -113.47996131 53.81089192 -113.51293945 52.10986328 C-113.56233002 49.50895112 -113.57441983 46.90993247 -113.58007812 44.30859375 C-113.5941659 42.65362576 -113.61037095 40.99867416 -113.62890625 39.34375 C-113.63426895 38.56761353 -113.63963165 37.79147705 -113.64515686 36.99182129 C-113.72820052 31.66522126 -113.72820052 31.66522126 -116 27 C-117.55279817 25.6688478 -117.55279817 25.6688478 -119.4296875 24.625 C-120.13327393 24.20275146 -120.83686035 23.78050293 -121.56176758 23.34545898 C-122.32513428 22.90145752 -123.08850098 22.45745605 -123.875 22 C-124.66350342 21.53086182 -125.45200684 21.06172363 -126.2644043 20.57836914 C-127.95412732 19.57335099 -129.64619008 18.57225824 -131.34033203 17.57470703 C-134.06083595 15.96398092 -136.76441565 14.32773031 -139.46484375 12.68359375 C-141.24731818 11.60143458 -143.0298684 10.51940024 -144.8125 9.4375 C-145.65345215 8.92509766 -146.4944043 8.41269531 -147.36083984 7.88476562 C-149.55849817 6.56073551 -151.77331144 5.27436287 -154 4 C-155.31677734 3.21302734 -155.31677734 3.21302734 -156.66015625 2.41015625 C-159.74809379 1.86886503 -161.28684158 2.94220352 -163.80786133 4.66821289 Z M-58.8125 6.875 C-59.46831055 7.27702637 -60.12412109 7.67905273 -60.79980469 8.09326172 C-66.09918517 11.36967888 -71.30376528 14.78815276 -76.46020508 18.28466797 C-77.02505615 18.66768066 -77.58990723 19.05069336 -78.171875 19.4453125 C-78.75324219 19.86111572 -79.33460938 20.27691895 -79.93359375 20.70532227 C-82 22 -82 22 -84.84765625 23.18334961 C-88.29349142 24.80151783 -90.46284734 26.13964318 -93 29 C-94.86538609 34.33277719 -94.665225 40.06094993 -94.54394531 45.64135742 C-94.50015572 48.30303458 -94.5839603 50.93972538 -94.6796875 53.59960938 C-94.89710484 62.0772855 -94.89710484 62.0772855 -91.78143311 69.73336792 C-88.33055417 73.25244856 -84.26327157 75.58589927 -80 78 C-78.49925434 79.0522487 -77.00974711 80.12097372 -75.5390625 81.21484375 C-74.23618761 82.12499608 -72.93151766 83.03258461 -71.625 83.9375 C-65.22992935 88.4054699 -58.9087636 92.96072854 -52.64501953 97.61108398 C-49.44746373 100.00300382 -49.44746373 100.00300382 -46 102 C-43.16777338 101.27874974 -40.41113874 100.49508984 -37.625 99.625 C-36.09653712 99.15825462 -34.56789678 98.69208989 -33.0390625 98.2265625 C-32.36053223 98.01596191 -31.68200195 97.80536133 -30.98291016 97.58837891 C-27.97888165 96.69700871 -24.97886877 95.99575774 -21.90625 95.37890625 C-20.7821875 95.10949219 -19.658125 94.84007812 -18.5 94.5625 C-17.3759375 94.31628906 -16.251875 94.07007813 -15.09375 93.81640625 C-10.27735417 90.98859809 -9.6512491 87.16805187 -8 82 C-7.52088377 80.59791105 -7.03872344 79.19686015 -6.55419922 77.79663086 C-5.17269356 73.77980825 -3.83640442 69.74955487 -2.51635742 65.7121582 C-1.68248945 63.17223811 -0.83248108 60.63805547 0.01757812 58.10351562 C0.55048351 56.47949589 1.08241973 54.85515774 1.61328125 53.23046875 C1.99592888 52.10223946 1.99592888 52.10223946 2.38630676 50.95121765 C3.66754339 46.96174699 4.45573212 44.01087893 3 40 C1.07100562 37.72905505 1.07100562 37.72905505 -1.4375 35.6875 C-2.35273437 34.90375 -3.26796875 34.12 -4.2109375 33.3125 C-5.13132812 32.549375 -6.05171875 31.78625 -7 31 C-7.75539063 30.360625 -8.51078125 29.72125 -9.2890625 29.0625 C-32.43867424 8.2166432 -32.43867424 8.2166432 -58.8125 6.875 Z M-210.0625 115.9375 C-211.0421875 116.75992188 -212.021875 117.58234375 -213.03125 118.4296875 C-216.57540708 121.49818139 -220.04860849 124.63754634 -223.51171875 127.796875 C-226.82507316 130.73052004 -230.27948595 133.46142475 -233.7734375 136.17578125 C-234.50820313 136.77777344 -235.24296875 137.37976563 -236 138 C-237.175625 138.82177734 -237.175625 138.82177734 -238.375 139.66015625 C-240.26972216 142.38837397 -240.16341113 142.95784665 -239.7265625 146.1328125 C-239.38697352 147.80272567 -239.01776339 149.46678783 -238.625 151.125 C-238.42801514 152.01372803 -238.23103027 152.90245605 -238.02807617 153.81811523 C-235.08813294 166.57146434 -230.87133402 178.5651023 -225.375 190.4375 C-225.00286377 191.24904541 -224.63072754 192.06059082 -224.24731445 192.89672852 C-223.88468506 193.65139404 -223.52205566 194.40605957 -223.1484375 195.18359375 C-222.83052246 195.84931396 -222.51260742 196.51503418 -222.18505859 197.20092773 C-220.23745912 200.15763571 -218.15381271 201.7043185 -214.72021484 202.58422852 C-213.89215332 202.68147217 -213.0640918 202.77871582 -212.2109375 202.87890625 C-211.27765625 202.99451904 -210.344375 203.11013184 -209.3828125 203.22924805 C-207.89394531 203.39420776 -207.89394531 203.39420776 -206.375 203.5625 C-205.3540625 203.68471924 -204.333125 203.80693848 -203.28125 203.93286133 C-200.18870153 204.29990866 -197.09453351 204.6501483 -194 205 C-192.24204484 205.20974528 -190.48422152 205.42059993 -188.7265625 205.6328125 C-187.15115874 205.81870318 -185.57564416 206.00365809 -184 206.1875 C-183.29020996 206.27136963 -182.58041992 206.35523926 -181.84912109 206.44165039 C-179.90253296 206.65796389 -177.95118452 206.83007102 -176 207 C-174.80117188 207.1753125 -173.60234375 207.350625 -172.3671875 207.53125 C-168.59109913 206.93548664 -168.24618816 206.60037484 -166.0078125 203.73828125 C-165.02211765 202.27944616 -164.06235814 200.80285361 -163.125 199.3125 C-162.09290219 197.74839806 -161.06034514 196.18459907 -160.02734375 194.62109375 C-159.52187012 193.83976074 -159.01639648 193.05842773 -158.49560547 192.25341797 C-157.12320573 190.18563318 -155.69037345 188.19975609 -154.19140625 186.22265625 C-153.76649902 185.65313232 -153.3415918 185.0836084 -152.90380859 184.49682617 C-151.75854285 182.96972856 -150.6041733 181.44947062 -149.44921875 179.9296875 C-147.03384494 175.04685634 -148.75967688 170.51460311 -150.36694336 165.53686523 C-150.93486899 163.87524899 -151.50950245 162.21591449 -152.08984375 160.55859375 C-152.39443008 159.67269058 -152.69901642 158.78678741 -153.01283264 157.8740387 C-153.98185183 155.0597927 -154.95947546 152.24862747 -155.9375 149.4375 C-156.59107713 147.5451229 -157.24407764 145.65254655 -157.89648438 143.75976562 C-160.08021283 137.40470102 -160.08021283 137.40470102 -162.31660461 131.06811523 C-163 129 -163 129 -163.68994141 125.60522461 C-164.85680959 122.61877413 -164.85680959 122.61877413 -168.57592773 121.30908203 C-170.10429814 120.84953592 -171.64107412 120.41736337 -173.18359375 120.0078125 C-173.9949025 119.77214569 -174.80621124 119.53647888 -175.6421051 119.29367065 C-178.23452677 118.54727328 -180.83528881 117.83642007 -183.4375 117.125 C-185.18617682 116.62459197 -186.93423371 116.12201213 -188.68164062 115.6171875 C-199.92905679 111.59154212 -199.92905679 111.59154212 -210.0625 115.9375 Z M-10.875 113.375 C-12.30959306 113.84207681 -13.74448047 114.30825069 -15.1796875 114.7734375 C-16.13464111 115.08933838 -16.13464111 115.08933838 -17.10888672 115.41162109 C-20.4638524 116.45544594 -23.74722304 117.11573314 -27.22607422 117.58618164 C-33.42379874 118.71364128 -39.6899392 119.95101406 -43.66711426 125.20037842 C-47.21197823 131.8920006 -49.11380366 139.17400782 -51.125 146.4375 C-51.79376797 148.61739832 -52.46949781 150.7951736 -53.15234375 152.97070312 C-58.190116 165.93424333 -58.190116 165.93424333 -58.15478516 179.14892578 C-57.47875244 180.03813721 -57.47875244 180.03813721 -56.7890625 180.9453125 C-56.29108154 181.62416504 -55.79310059 182.30301758 -55.2800293 183.00244141 C-54.73386963 183.70288574 -54.18770996 184.40333008 -53.625 185.125 C-52.49632038 186.61278265 -51.37003976 188.10238812 -50.24609375 189.59375 C-49.40860596 190.69783203 -49.40860596 190.69783203 -48.55419922 191.82421875 C-46.74442683 194.35778637 -45.26026907 196.96904454 -43.85571289 199.74414062 C-42.11311672 202.54977509 -40.42565741 204.73608304 -38 207 C-34.79302557 207.50877158 -34.79302557 207.50877158 -31.28515625 206.9609375 C-30.63480408 206.89342285 -29.9844519 206.8259082 -29.31439209 206.75634766 C-27.20565344 206.53091457 -25.10402024 206.2655888 -23 206 C-21.57867321 205.84308666 -20.15703611 205.6889596 -18.73510742 205.53759766 C-15.1306511 205.14627376 -11.53207548 204.71711047 -7.93408203 204.27050781 C-5.71059991 203.99512013 -3.48625437 203.72766839 -1.26171875 203.4609375 C0.16411862 203.28691751 1.58990214 203.11245567 3.015625 202.9375 C4.28696289 202.78152344 5.55830078 202.62554688 6.86816406 202.46484375 C11.03250083 202.01016716 11.03250083 202.01016716 14.1315918 199.52319336 C15.3383823 197.33783457 16.53136784 195.15024298 17.6875 192.9375 C18.12449219 192.10420166 18.56148437 191.27090332 19.01171875 190.41235352 C25.73616343 177.08930314 30.33464632 162.66615896 33 148 C33.2475 146.824375 33.495 145.64875 33.75 144.4375 C32.45934569 138.52200107 27.5832897 135.64691868 23 132 C21.22916667 130.54166667 19.45833333 129.08333333 17.6875 127.625 C16.78515625 126.89539063 15.8828125 126.16578125 14.953125 125.4140625 C10.99861937 122.18141107 7.1139547 118.86892919 3.23901367 115.54150391 C-2.31925058 110.7982921 -4.12852519 111.13015528 -10.875 113.375 Z M-140.71902466 200.97528076 C-142.53428428 203.84449374 -144.8352636 205.95355042 -147.36972046 208.18800354 C-150.72392198 211.40171675 -152.48603983 214.35616522 -153 219 C-151.34772857 232.84263158 -144.95830124 248.95214639 -138 261 C-135.1438664 262.12005239 -133.00328403 262.58422872 -130 263 C-128.36224609 263.27457031 -128.36224609 263.27457031 -126.69140625 263.5546875 C-107.93563641 266.35749446 -86.20112744 267.06704248 -68 261 C-66.88694366 258.51553327 -65.97420841 256.13565087 -65.1171875 253.5625 C-64.85745148 252.80839844 -64.59771545 252.05429687 -64.33010864 251.27734375 C-63.78153351 249.67530029 -63.23888015 248.07121889 -62.70166016 246.46533203 C-61.88586104 244.03239065 -61.0480967 241.6078994 -60.20703125 239.18359375 C-59.67573563 237.62285396 -59.14574742 236.06166838 -58.6171875 234.5 C-58.3692746 233.78400635 -58.12136169 233.0680127 -57.86593628 232.33032227 C-54.85263001 223.69878081 -54.85263001 223.69878081 -55.88018799 215.01286316 C-57.07178113 213.15291952 -58.38745801 211.50004361 -59.8125 209.8125 C-60.83234934 208.52602231 -61.85053872 207.2382272 -62.8671875 205.94921875 C-63.38893555 205.30130371 -63.91068359 204.65338867 -64.44824219 203.98583984 C-65.98352941 202.021078 -67.41260847 200.01471344 -68.8203125 197.95703125 C-69.26141357 197.31338623 -69.70251465 196.66974121 -70.15698242 196.0065918 C-70.99407118 194.77657405 -71.82523583 193.54249817 -72.6496582 192.30395508 C-74.70555312 189.18529754 -74.70555312 189.18529754 -77.83361816 187.3584137 C-85.43566453 186.10070488 -93.31929531 186.23459978 -101.00488281 186.0456543 C-103.32179804 185.97395875 -105.63798383 185.87174803 -107.95214844 185.73803711 C-124.46962956 184.80399882 -132.63279248 185.98351756 -140.71902466 200.97528076 Z " fill="#34B4F4" transform="translate(615,593)"/>
<path d="M0 0 C4.79704181 4.12182794 8.51200138 9.01474549 9.1328125 15.41796875 C9.42868262 25.04512723 7.76963061 30.23928657 1.37109375 37.37109375 C-1.06375777 39.88698953 -3.4697933 42.33335823 -6.140625 44.59765625 C-6.800625 44.59765625 -7.460625 44.59765625 -8.140625 44.59765625 C-8.3675 45.15453125 -8.594375 45.71140625 -8.828125 46.28515625 C-10.51612536 49.25925213 -12.60739017 51.3177449 -15.140625 53.59765625 C-15.800625 53.59765625 -16.460625 53.59765625 -17.140625 53.59765625 C-17.38842461 54.17021778 -17.63622421 54.74277931 -17.8915329 55.33269119 C-19.33701824 57.95377397 -21.01019315 59.71899287 -23.12609863 61.83709717 C-23.95895889 62.67559708 -24.79181915 63.51409698 -25.6499176 64.37800598 C-26.56530807 65.28934799 -27.48069855 66.20069 -28.42382812 67.13964844 C-29.39665044 68.11518154 -30.36904692 69.09113945 -31.34104919 70.06748962 C-33.97887253 72.71442629 -36.62297777 75.35500291 -39.26852989 77.99421215 C-42.03459408 80.75521379 -44.79577643 83.52109058 -47.55773926 86.28619385 C-52.19456789 90.92666016 -56.83559604 95.5628951 -61.47900391 100.19677734 C-66.85302793 105.55990438 -72.2197916 110.93021589 -77.58286524 116.30429149 C-82.18474434 120.91523382 -86.79049359 125.52228311 -91.39952612 130.12607503 C-94.15373061 132.87715615 -96.90655325 135.6295834 -99.65589905 138.38552094 C-102.23852431 140.97390548 -104.82595832 143.55738291 -107.41725349 146.13708687 C-108.82528335 147.54119322 -110.22836876 148.95025231 -111.6313324 150.35942078 C-112.46419266 151.18664139 -113.29705292 152.013862 -114.15515137 152.8661499 C-114.88077019 153.59101467 -115.60638901 154.31587944 -116.35399628 155.06270981 C-118.140625 156.59765625 -118.140625 156.59765625 -120.140625 156.59765625 C-120.388125 157.17515625 -120.635625 157.75265625 -120.890625 158.34765625 C-122.32362488 160.92705604 -123.92487176 162.65887217 -126.140625 164.59765625 C-126.800625 164.59765625 -127.460625 164.59765625 -128.140625 164.59765625 C-128.800625 165.91765625 -129.460625 167.23765625 -130.140625 168.59765625 C-130.800625 168.59765625 -131.460625 168.59765625 -132.140625 168.59765625 C-132.39070313 169.20222656 -132.64078125 169.80679688 -132.8984375 170.4296875 C-134.32848271 172.92552112 -135.56582193 173.81989668 -138.015625 175.28515625 C-138.69367188 175.70152344 -139.37171875 176.11789062 -140.0703125 176.546875 C-145.87579003 179.49342869 -152.90191187 179.52680079 -159.078125 177.66015625 C-170.20037179 172.71757701 -179.48020559 160.3770121 -187.953125 151.84765625 C-189.26213287 150.53361811 -190.57137626 149.21981454 -191.88085938 147.90625 C-194.27855414 145.50046539 -196.67490035 143.09335594 -199.06958008 140.68457031 C-199.589319 140.16218781 -200.10905792 139.6398053 -200.64454651 139.10159302 C-202.06992506 137.66872755 -203.49445737 136.2350204 -204.91894531 134.80126953 C-206.90409481 132.832263 -208.93701138 131.01786399 -211.078125 129.22265625 C-214.30307083 126.43940093 -217.01097173 123.4985859 -219.7109375 120.21484375 C-221.29533852 118.34034465 -221.29533852 118.34034465 -224.140625 116.09765625 C-226.46127638 114.1637801 -228.13163228 112.51399874 -230.015625 110.22265625 C-232.20566605 107.56823477 -234.49897212 105.36488175 -237.140625 103.16015625 C-243.34819861 97.85463922 -249.42683419 90.85182334 -250.38671875 82.44140625 C-250.45413391 80.12549731 -250.35177262 77.90434441 -250.140625 75.59765625 C-250.05361328 74.55544922 -250.05361328 74.55544922 -249.96484375 73.4921875 C-249.10022307 68.10653819 -246.49818831 65.390421 -242.2734375 62.07421875 C-235.79750827 57.59088313 -229.84928262 56.63686704 -222.140625 57.59765625 C-210.71193001 60.73740762 -201.64372277 72.95662152 -193.51426697 81.14884949 C-191.81833017 82.85776519 -190.11909993 84.56334772 -188.41906738 86.26818848 C-184.82339046 89.87516653 -181.23173186 93.486129 -177.640625 97.09765625 C-173.44773433 101.31418686 -169.25319198 105.52904809 -165.05445862 109.73976135 C-163.38056166 111.42013758 -161.70970074 113.10349318 -160.03894043 114.7869873 C-159.02024771 115.80930971 -158.00141593 116.83149357 -156.98242188 117.85351562 C-156.09325073 118.74792358 -155.20407959 119.64233154 -154.28796387 120.56384277 C-152.31094106 122.63348255 -152.31094106 122.63348255 -150.140625 123.59765625 C-149.769375 122.73140625 -149.769375 122.73140625 -149.390625 121.84765625 C-147.95762512 119.26825646 -146.35637824 117.53644033 -144.140625 115.59765625 C-143.480625 115.59765625 -142.820625 115.59765625 -142.140625 115.59765625 C-141.87636719 115.00887695 -141.61210937 114.42009766 -141.33984375 113.81347656 C-140.09693556 111.51693041 -138.79056019 109.98932459 -136.953125 108.14453125 C-136.33695312 107.52578125 -135.72078125 106.90703125 -135.0859375 106.26953125 C-134.44398438 105.6353125 -133.80203125 105.00109375 -133.140625 104.34765625 C-132.17769531 103.373125 -132.17769531 103.373125 -131.1953125 102.37890625 C-130.57914062 101.7653125 -129.96296875 101.15171875 -129.328125 100.51953125 C-128.76480469 99.9584668 -128.20148438 99.39740234 -127.62109375 98.81933594 C-126.140625 97.59765625 -126.140625 97.59765625 -124.140625 97.59765625 C-123.645625 96.11265625 -123.645625 96.11265625 -123.140625 94.59765625 C-122.480625 94.59765625 -121.820625 94.59765625 -121.140625 94.59765625 C-121.140625 93.93765625 -121.140625 93.27765625 -121.140625 92.59765625 C-120.480625 92.59765625 -119.820625 92.59765625 -119.140625 92.59765625 C-118.893125 91.97890625 -118.645625 91.36015625 -118.390625 90.72265625 C-116.90322131 88.19406998 -115.70384491 87.87926621 -113.140625 86.59765625 C-112.8415625 85.994375 -112.5425 85.39109375 -112.234375 84.76953125 C-111.00452757 82.32740564 -109.57765436 80.7682701 -107.640625 78.84765625 C-107.0321875 78.2340625 -106.42375 77.62046875 -105.796875 76.98828125 C-104.140625 75.59765625 -104.140625 75.59765625 -102.140625 75.59765625 C-101.769375 74.73140625 -101.769375 74.73140625 -101.390625 73.84765625 C-99.95762512 71.26825646 -98.35637824 69.53644033 -96.140625 67.59765625 C-95.480625 67.59765625 -94.820625 67.59765625 -94.140625 67.59765625 C-93.8725 66.95828125 -93.604375 66.31890625 -93.328125 65.66015625 C-92.140625 63.59765625 -92.140625 63.59765625 -89.140625 62.59765625 C-88.45575775 61.27357956 -87.79192297 59.93856384 -87.140625 58.59765625 C-85.140625 56.34765625 -85.140625 56.34765625 -83.140625 54.59765625 C-82.480625 54.59765625 -81.820625 54.59765625 -81.140625 54.59765625 C-80.769375 53.73140625 -80.769375 53.73140625 -80.390625 52.84765625 C-78.95762512 50.26825646 -77.35637824 48.53644033 -75.140625 46.59765625 C-74.480625 46.59765625 -73.820625 46.59765625 -73.140625 46.59765625 C-72.769375 45.73140625 -72.769375 45.73140625 -72.390625 44.84765625 C-70.95762512 42.26825646 -69.35637824 40.53644033 -67.140625 38.59765625 C-66.480625 38.59765625 -65.820625 38.59765625 -65.140625 38.59765625 C-64.810625 37.60765625 -64.480625 36.61765625 -64.140625 35.59765625 C-61.703125 32.91015625 -61.703125 32.91015625 -59.140625 30.59765625 C-58.480625 30.59765625 -57.820625 30.59765625 -57.140625 30.59765625 C-56.810625 29.60765625 -56.480625 28.61765625 -56.140625 27.59765625 C-53.703125 24.91015625 -53.703125 24.91015625 -51.140625 22.59765625 C-50.480625 22.59765625 -49.820625 22.59765625 -49.140625 22.59765625 C-48.810625 21.60765625 -48.480625 20.61765625 -48.140625 19.59765625 C-46.73865348 18.42934665 -45.33223281 17.26574597 -43.8984375 16.13671875 C-41.17320547 13.75062671 -38.94990034 10.96661562 -36.65625 8.171875 C-36.15609375 7.65238281 -35.6559375 7.13289063 -35.140625 6.59765625 C-34.480625 6.59765625 -33.820625 6.59765625 -33.140625 6.59765625 C-32.810625 5.60765625 -32.480625 4.61765625 -32.140625 3.59765625 C-23.28591768 -5.27963961 -10.47966616 -7.18905098 0 0 Z " fill="#34B4F4" transform="translate(640.140625,355.40234375)"/>
<path d="M0 0 C7.69645197 4.93560046 12.57091677 12.82329682 14.60913086 21.67041016 C15.39155324 26.33366711 15.48639245 31.03117485 15.625 35.75 C15.66222168 36.85255127 15.69944336 37.95510254 15.73779297 39.09106445 C16.05027996 49.06400772 16.19613485 59.02378185 16 69 C15.97317139 70.40354736 15.97317139 70.40354736 15.94580078 71.83544922 C15.87915886 74.76623446 15.78787154 77.69518934 15.6875 80.625 C15.66510254 81.51340576 15.64270508 82.40181152 15.61962891 83.31713867 C15.16928391 94.15496602 12.20698203 104.22195575 4.078125 111.7890625 C-2.32522647 116.82735842 -8.62893564 119.56066454 -16.875 119.4375 C-17.9266333 119.42831543 -17.9266333 119.42831543 -18.99951172 119.41894531 C-24.8221735 119.24376687 -29.08703018 118.02825295 -34 115 C-35.03125 114.46375 -36.0625 113.9275 -37.125 113.375 C-45.12029527 106.77019086 -48.17496684 98.98556424 -50 89 C-50.39228761 84.04263665 -50.39823463 79.11538339 -50.36328125 74.14453125 C-50.36276079 72.74834697 -50.36328564 71.35216196 -50.36479187 69.95597839 C-50.36470292 67.05232579 -50.35442981 64.14895529 -50.33618164 61.24536133 C-50.31343324 57.54716434 -50.31297032 53.84937566 -50.31969929 50.15112782 C-50.32305904 47.27614287 -50.31637269 44.40124895 -50.30657005 41.52628136 C-50.30092222 39.50742215 -50.30214472 37.48854741 -50.30354309 35.46968079 C-50.21094501 23.4051732 -48.67296792 13.45520579 -40.3671875 4.17578125 C-29.48191682 -5.87410819 -12.8421897 -7.62430557 0 0 Z " fill="#34B4F4" transform="translate(384,137)"/>
<path d="M0 0 C6.72356262 5.17878929 11.18860453 13.27953049 12.82421875 21.59765625 C12.93133007 23.80035137 12.9828813 26.00596004 13.0012207 28.21118164 C13.0077919 28.8670929 13.0143631 29.52300415 13.02113342 30.1987915 C13.04080075 32.36429986 13.05251804 34.52973887 13.0625 36.6953125 C13.06657553 37.43916136 13.07065105 38.18301022 13.07485008 38.94939995 C13.09568898 42.8913126 13.10999666 46.83319073 13.11938477 50.77514648 C13.13040811 54.82101863 13.16476628 58.86633456 13.20455647 62.91201115 C13.23087347 66.0444176 13.23909014 69.17669495 13.24266624 72.30920219 C13.24749818 73.79896207 13.25901375 75.28871753 13.27770424 76.778368 C13.41403904 88.37051921 12.10271388 98.535944 4.59765625 107.8125 C-2.14801403 114.60274519 -9.70829776 118.02105893 -19.23828125 118.09765625 C-28.38163804 118.10551305 -35.25937191 115.78107365 -42.32421875 109.76953125 C-49.05683923 102.78124164 -51.32733755 95.22102462 -51.76953125 85.67578125 C-51.80875702 84.89862762 -51.84798279 84.121474 -51.88839722 83.32077026 C-52.308331 74.10840904 -52.32610957 64.89308781 -52.30615234 55.67285156 C-52.30074915 52.70502711 -52.3061585 49.73735141 -52.3125 46.76953125 C-52.32790254 12.84428704 -52.32790254 12.84428704 -41.17578125 1.59765625 C-28.63399345 -7.53086019 -13.23247152 -8.52864861 0 0 Z " fill="#34B4F3" transform="translate(676.17578125,138.40234375)"/>
<path d="M0 0 C1.5631897 0.00785522 1.5631897 0.00785522 3.15795898 0.01586914 C4.28266602 0.0190918 5.40737305 0.02231445 6.56616211 0.02563477 C7.75016602 0.03401367 8.93416992 0.04239258 10.15405273 0.05102539 C11.34192383 0.05553711 12.52979492 0.06004883 13.75366211 0.06469727 C16.69967499 0.07652864 19.64558954 0.09301252 22.59155273 0.11352539 C22.59155273 0.44352539 22.59155273 0.77352539 22.59155273 1.11352539 C14.67155273 1.44352539 6.75155273 1.77352539 -1.40844727 2.11352539 C-1.3968457 4.50989258 -1.38524414 6.90625977 -1.37329102 9.37524414 C-1.36548436 11.70523954 -1.35941675 14.03523346 -1.35351562 16.36523438 C-1.34849785 17.9801499 -1.34168215 19.59506091 -1.33300781 21.20996094 C-1.32083012 23.53590004 -1.31519332 25.86177889 -1.31079102 28.18774414 C-1.30562973 28.90564621 -1.30046844 29.62354828 -1.29515076 30.36320496 C-1.29473851 34.07642771 -1.5190051 37.50343661 -2.40844727 41.11352539 C-2.73844727 41.11352539 -3.06844727 41.11352539 -3.40844727 41.11352539 C-3.43309431 35.43522461 -3.45128189 29.7569547 -3.46337891 24.07861328 C-3.46841983 22.14533954 -3.47525245 20.21206963 -3.48388672 18.27880859 C-3.49596291 15.50625667 -3.50167783 12.73375498 -3.50610352 9.96118164 C-3.5112648 9.09139175 -3.51642609 8.22160187 -3.52174377 7.32545471 C-3.52193912 5.25446725 -3.47052894 3.18358215 -3.40844727 1.11352539 C-2.40844727 0.11352539 -2.40844727 0.11352539 0 0 Z " fill="#39B0EC" transform="translate(417.408447265625,191.886474609375)"/>
<path d="M0 0 C7.12789759 0.01534531 14.11857554 0.22018918 21.19140625 1.1328125 C21.19140625 1.4628125 21.19140625 1.7928125 21.19140625 2.1328125 C13.60140625 2.1328125 6.01140625 2.1328125 -1.80859375 2.1328125 C-1.80859375 13.6828125 -1.80859375 25.2328125 -1.80859375 37.1328125 C-2.13859375 37.1328125 -2.46859375 37.1328125 -2.80859375 37.1328125 C-2.97582929 32.02435456 -3.13642661 26.91574846 -3.29077148 21.80688477 C-3.34426637 20.06756927 -3.3996013 18.32830938 -3.45678711 16.58911133 C-3.53849002 14.09468584 -3.61365539 11.60013767 -3.6875 9.10546875 C-3.71453506 8.32317398 -3.74157013 7.54087921 -3.76942444 6.73487854 C-3.82147761 4.86820317 -3.820464 3.00017576 -3.80859375 1.1328125 C-2.80859375 0.1328125 -2.80859375 0.1328125 0 0 Z " fill="#33ACEA" transform="translate(707.80859375,191.8671875)"/>
<path d="M0 0 C1.62723299 0.45034123 3.25173664 0.91055354 4.875 1.375 C5.77992188 1.63023437 6.68484375 1.88546875 7.6171875 2.1484375 C10 3 10 3 12 5 C9 6 9 6 6.73828125 5.00390625 C5.93777344 4.52824219 5.13726562 4.05257812 4.3125 3.5625 C3.50425781 3.08941406 2.69601562 2.61632812 1.86328125 2.12890625 C1.24839844 1.75636719 0.63351562 1.38382813 0 1 C0 0.67 0 0.34 0 0 Z " fill="#39AFEC" transform="translate(429,862)"/>
<path d="M0 0 C0.33 0 0.66 0 1 0 C1 5.94 1 11.88 1 18 C0.67 18 0.34 18 0 18 C0 12.06 0 6.12 0 0 Z " fill="#3AABE6" transform="translate(224,464)"/>
<path d="M0 0 C0.33 0 0.66 0 1 0 C1 3.63 1 7.26 1 11 C0.67 11 0.34 11 0 11 C0 7.37 0 3.74 0 0 Z " fill="#3BA9E3" transform="translate(224,277)"/>
<path d="M0 0 C2.97 0 5.94 0 9 0 C9 0.33 9 0.66 9 1 C6.03 1 3.06 1 0 1 C0 0.67 0 0.34 0 0 Z " fill="#3BB5EF" transform="translate(502,856)"/>
<path d="M0 0 C0.33 0 0.66 0 1 0 C1 2.64 1 5.28 1 8 C0.67 8 0.34 8 0 8 C0 5.36 0 2.72 0 0 Z " fill="#3AAAE6" transform="translate(224,496)"/>
<path d="M0 0 C0.33 0 0.66 0 1 0 C1 2.31 1 4.62 1 7 C0.67 7 0.34 7 0 7 C0 4.69 0 2.38 0 0 Z " fill="#3BABE6" transform="translate(224,505)"/>
<path d="M0 0 C0.33 0 0.66 0 1 0 C1 2.31 1 4.62 1 7 C0.67 7 0.34 7 0 7 C0 4.69 0 2.38 0 0 Z " fill="#3BABE7" transform="translate(224,441)"/>
<path d="M0 0 C0.33 0 0.66 0 1 0 C1 1.98 1 3.96 1 6 C0.67 6 0.34 6 0 6 C0 4.02 0 2.04 0 0 Z " fill="#39AAE5" transform="translate(224,538)"/>
<path d="M0 0 C0.33 0 0.66 0 1 0 C1 1.98 1 3.96 1 6 C0.67 6 0.34 6 0 6 C0 4.02 0 2.04 0 0 Z " fill="#3BABE6" transform="translate(224,528)"/>
<path d="M0 0 C0.33 0 0.66 0 1 0 C1 1.98 1 3.96 1 6 C0.67 6 0.34 6 0 6 C0 4.02 0 2.04 0 0 Z " fill="#3CAEE8" transform="translate(799,489)"/>
<path d="M0 0 C0.33 0 0.66 0 1 0 C1 1.98 1 3.96 1 6 C0.67 6 0.34 6 0 6 C0 4.02 0 2.04 0 0 Z " fill="#3BAEE7" transform="translate(799,480)"/>
<path d="M0 0 C0.99 0.495 0.99 0.495 2 1 C2 1.66 2 2.32 2 3 C1.34 3 0.68 3 0 3 C0 2.01 0 1.02 0 0 Z " fill="#3BB6F2" transform="translate(448,717)"/>
<path d="M0 0 C0.33 0 0.66 0 1 0 C1 1.65 1 3.3 1 5 C0.67 5 0.34 5 0 5 C0 3.35 0 1.7 0 0 Z " fill="#3CAEE8" transform="translate(799,498)"/>
<path d="M0 0 C0.33 0 0.66 0 1 0 C1 1.65 1 3.3 1 5 C0.67 5 0.34 5 0 5 C0 3.35 0 1.7 0 0 Z " fill="#3BAEE8" transform="translate(799,473)"/>
<path d="M0 0 C0.33 0 0.66 0 1 0 C1 1.65 1 3.3 1 5 C0.67 5 0.34 5 0 5 C0 3.35 0 1.7 0 0 Z " fill="#3AADE7" transform="translate(799,465)"/>
<path d="M0 0 C0.33 0 0.66 0 1 0 C1 1.65 1 3.3 1 5 C0.67 5 0.34 5 0 5 C0 3.35 0 1.7 0 0 Z " fill="#3CABE6" transform="translate(224,399)"/>
<path d="M0 0 C0.33 0 0.66 0 1 0 C1 1.65 1 3.3 1 5 C0.67 5 0.34 5 0 5 C0 3.35 0 1.7 0 0 Z " fill="#3AABE6" transform="translate(224,391)"/>
<path d="M0 0 C0.33 0 0.66 0 1 0 C1 1.65 1 3.3 1 5 C0.67 5 0.34 5 0 5 C0 3.35 0 1.7 0 0 Z " fill="#3AACE6" transform="translate(799,361)"/>
<path d="M0 0 C1 4 1 4 1 4 Z " fill="#3AADE7" transform="translate(799,522)"/>
<path d="M0 0 C1 4 1 4 1 4 Z " fill="#3BACE7" transform="translate(224,488)"/>
<path d="M0 0 C1 4 1 4 1 4 Z " fill="#3AACE7" transform="translate(224,483)"/>
<path d="M0 0 C1 4 1 4 1 4 Z " fill="#3BABE7" transform="translate(224,456)"/>
<path d="M0 0 C1 4 1 4 1 4 Z " fill="#3BADE5" transform="translate(799,394)"/>
<path d="M0 0 C1 4 1 4 1 4 Z " fill="#3AADE6" transform="translate(799,378)"/>
<path d="M0 0 C1 4 1 4 1 4 Z " fill="#3BAEE8" transform="translate(799,330)"/>
<path d="M0 0 C1 4 1 4 1 4 Z " fill="#3AABE5" transform="translate(799,297)"/>
<path d="M0 0 C3 1 3 1 3 1 Z " fill="#3BB5EF" transform="translate(437,688)"/>
<path d="" fill="#3BACE5" transform="translate(0,0)"/>
<path d="" fill="#3CAAE5" transform="translate(0,0)"/>
<path d="" fill="#3BADE6" transform="translate(0,0)"/>
<path d="" fill="#3CADE6" transform="translate(0,0)"/>
<path d="" fill="#3AADE6" transform="translate(0,0)"/>
<path d="" fill="#3BADE7" transform="translate(0,0)"/>
<path d="" fill="#3BACE7" transform="translate(0,0)"/>
<path d="" fill="#3CACE7" transform="translate(0,0)"/>
<path d="" fill="#3AADE7" transform="translate(0,0)"/>
<path d="" fill="#3BACE6" transform="translate(0,0)"/>
<path d="" fill="#3BABE6" transform="translate(0,0)"/>
<path d="" fill="#3CABE6" transform="translate(0,0)"/>
<path d="" fill="#3BB0ED" transform="translate(0,0)"/>
<path d="" fill="#3BACE7" transform="translate(0,0)"/>
<path d="" fill="#3BABE7" transform="translate(0,0)"/>
<path d="" fill="#3BADE7" transform="translate(0,0)"/>
<path d="" fill="#3BABE6" transform="translate(0,0)"/>
<path d="" fill="#3AADE6" transform="translate(0,0)"/>
<path d="" fill="#3AAAE7" transform="translate(0,0)"/>
<path d="" fill="#3AAAE7" transform="translate(0,0)"/>
<path d="" fill="#3AACE6" transform="translate(0,0)"/>
<path d="" fill="#3BACE5" transform="translate(0,0)"/>
<path d="M0 0 C3 1 3 1 3 1 Z " fill="#3CB0E7" transform="translate(288,192)"/>
<path d="M0 0 C2 1 2 1 2 1 Z " fill="#3DABE3" transform="translate(521,885)"/>
<path d="M0 0 C2 1 2 1 2 1 Z " fill="#3CADE4" transform="translate(557,879)"/>
<path d="" fill="#3FAAE4" transform="translate(0,0)"/>
<path d="" fill="#3DABE3" transform="translate(0,0)"/>
<path d="" fill="#3CABE4" transform="translate(0,0)"/>
<path d="" fill="#3AACE5" transform="translate(0,0)"/>
<path d="" fill="#3AB2F1" transform="translate(0,0)"/>
<path d="" fill="#3CB7F2" transform="translate(0,0)"/>
<path d="M0 0 C2 1 2 1 2 1 Z " fill="#3EB0E8" transform="translate(740,639)"/>
<path d="M0 0 C2 1 2 1 2 1 Z " fill="#3DAEE7" transform="translate(273,636)"/>
<path d="" fill="#3DB6F1" transform="translate(0,0)"/>
<path d="M0 0 C2 1 2 1 2 1 Z " fill="#3DA9E1" transform="translate(235,605)"/>
<path d="" fill="#3CAAE3" transform="translate(0,0)"/>
<path d="M0 0 C2 1 2 1 2 1 Z " fill="#3BB3EF" transform="translate(467,561)"/>
<path d="" fill="#3BADE6" transform="translate(0,0)"/>
<path d="" fill="#3BABE7" transform="translate(0,0)"/>
<path d="" fill="#3BB0EC" transform="translate(0,0)"/>
<path d="" fill="#3AADE7" transform="translate(0,0)"/>
<path d="" fill="#3AADE6" transform="translate(0,0)"/>
<path d="" fill="#3AAEE7" transform="translate(0,0)"/>
<path d="" fill="#3AAEE6" transform="translate(0,0)"/>
<path d="" fill="#3BADE6" transform="translate(0,0)"/>
<path d="" fill="#3BADE7" transform="translate(0,0)"/>
<path d="" fill="#3CABE8" transform="translate(0,0)"/>
<path d="" fill="#3AABE5" transform="translate(0,0)"/>
<path d="" fill="#3BB0F0" transform="translate(0,0)"/>
<path d="" fill="#3AADE7" transform="translate(0,0)"/>
<path d="" fill="#3BAAE6" transform="translate(0,0)"/>
<path d="" fill="#3BACE4" transform="translate(0,0)"/>
<path d="" fill="#3D403F" transform="translate(0,0)"/>
<path d="" fill="#3DA9E1" transform="translate(0,0)"/>
<path d="" fill="#3DAAE3" transform="translate(0,0)"/>
<path d="" fill="#3DABE4" transform="translate(0,0)"/>
<path d="" fill="#40AAE0" transform="translate(0,0)"/>
<path d="" fill="#3FAAE1" transform="translate(0,0)"/>
<path d="" fill="#3EABE3" transform="translate(0,0)"/>
<path d="" fill="#3FA9E3" transform="translate(0,0)"/>
<path d="" fill="#3EABE1" transform="translate(0,0)"/>
<path d="" fill="#3CAEE4" transform="translate(0,0)"/>
<path d="" fill="#3CB5F0" transform="translate(0,0)"/>
<path d="" fill="#3BB5EF" transform="translate(0,0)"/>
<path d="" fill="#3DA9E1" transform="translate(0,0)"/>
<path d="" fill="#3AB4F2" transform="translate(0,0)"/>
<path d="" fill="#3CB5F0" transform="translate(0,0)"/>
<path d="" fill="#3BACE3" transform="translate(0,0)"/>
<path d="" fill="#40B6F1" transform="translate(0,0)"/>
<path d="" fill="#3CACE5" transform="translate(0,0)"/>
<path d="" fill="#3DACE2" transform="translate(0,0)"/>
<path d="" fill="#3CADE7" transform="translate(0,0)"/>
<path d="" fill="#3DAAE3" transform="translate(0,0)"/>
<path d="" fill="#3BABE2" transform="translate(0,0)"/>
<path d="" fill="#3EAAE1" transform="translate(0,0)"/>
<path d="" fill="#3FA8E1" transform="translate(0,0)"/>
<path d="" fill="#3CA8DF" transform="translate(0,0)"/>
<path d="" fill="#3CABE9" transform="translate(0,0)"/>
<path d="" fill="#3EB5F1" transform="translate(0,0)"/>
<path d="" fill="#3BB2EE" transform="translate(0,0)"/>
<path d="" fill="#3DB1F3" transform="translate(0,0)"/>
<path d="" fill="#3AB2EF" transform="translate(0,0)"/>
<path d="" fill="#3CB7F3" transform="translate(0,0)"/>
<path d="" fill="#3DAAE3" transform="translate(0,0)"/>
<path d="" fill="#3CABE6" transform="translate(0,0)"/>
<path d="" fill="#3CB3EF" transform="translate(0,0)"/>
<path d="" fill="#3BB4F1" transform="translate(0,0)"/>
<path d="" fill="#38B4F1" transform="translate(0,0)"/>
<path d="" fill="#3AB7F2" transform="translate(0,0)"/>
<path d="" fill="#3CACE4" transform="translate(0,0)"/>
<path d="" fill="#40B7F0" transform="translate(0,0)"/>
<path d="" fill="#3BB5F1" transform="translate(0,0)"/>
<path d="" fill="#3DB7F2" transform="translate(0,0)"/>
<path d="" fill="#3EADE5" transform="translate(0,0)"/>
<path d="" fill="#3DACE4" transform="translate(0,0)"/>
<path d="" fill="#3BB8F3" transform="translate(0,0)"/>
<path d="" fill="#3CADE4" transform="translate(0,0)"/>
<path d="" fill="#3BB0E6" transform="translate(0,0)"/>
<path d="" fill="#3EB5F1" transform="translate(0,0)"/>
<path d="" fill="#3FB6F3" transform="translate(0,0)"/>
<path d="" fill="#3DAFE5" transform="translate(0,0)"/>
<path d="" fill="#3DB4F1" transform="translate(0,0)"/>
<path d="" fill="#3CB5F3" transform="translate(0,0)"/>
<path d="" fill="#3BB6F2" transform="translate(0,0)"/>
<path d="" fill="#3DB9F3" transform="translate(0,0)"/>
<path d="" fill="#3CB7F2" transform="translate(0,0)"/>
<path d="" fill="#37B3F2" transform="translate(0,0)"/>
<path d="" fill="#3CAFEA" transform="translate(0,0)"/>
<path d="" fill="#3CAEE9" transform="translate(0,0)"/>
<path d="" fill="#3EB1EA" transform="translate(0,0)"/>
<path d="" fill="#3EB2EC" transform="translate(0,0)"/>
<path d="" fill="#3BB6F2" transform="translate(0,0)"/>
<path d="" fill="#3EAFE9" transform="translate(0,0)"/>
<path d="" fill="#3DB8F4" transform="translate(0,0)"/>
<path d="" fill="#3DB9F3" transform="translate(0,0)"/>
<path d="" fill="#3DB2EC" transform="translate(0,0)"/>
<path d="" fill="#3FB2EE" transform="translate(0,0)"/>
<path d="" fill="#3DB4F0" transform="translate(0,0)"/>
<path d="" fill="#3BB5F2" transform="translate(0,0)"/>
<path d="" fill="#3BB6F0" transform="translate(0,0)"/>
<path d="" fill="#3DB0E9" transform="translate(0,0)"/>
<path d="" fill="#3CB6F0" transform="translate(0,0)"/>
<path d="" fill="#3CB5F1" transform="translate(0,0)"/>
<path d="" fill="#3DB8F3" transform="translate(0,0)"/>
<path d="" fill="#40ACE4" transform="translate(0,0)"/>
<path d="" fill="#3EAAE5" transform="translate(0,0)"/>
<path d="" fill="#3CB3EE" transform="translate(0,0)"/>
<path d="" fill="#39B7F4" transform="translate(0,0)"/>
<path d="" fill="#3DACE4" transform="translate(0,0)"/>
<path d="" fill="#39B5F3" transform="translate(0,0)"/>
<path d="" fill="#3FABDF" transform="translate(0,0)"/>
<path d="" fill="#3CB4F2" transform="translate(0,0)"/>
<path d="" fill="#3BB4ED" transform="translate(0,0)"/>
<path d="" fill="#3FA9E3" transform="translate(0,0)"/>
<path d="" fill="#3EB2EC" transform="translate(0,0)"/>
<path d="" fill="#3EB5F0" transform="translate(0,0)"/>
<path d="" fill="#3DA9E3" transform="translate(0,0)"/>
<path d="" fill="#3CAEE4" transform="translate(0,0)"/>
<path d="" fill="#39B3EF" transform="translate(0,0)"/>
<path d="" fill="#3BB2EF" transform="translate(0,0)"/>
<path d="" fill="#3CACE5" transform="translate(0,0)"/>
<path d="" fill="#3CB3ED" transform="translate(0,0)"/>
<path d="" fill="#3CB4EE" transform="translate(0,0)"/>
<path d="" fill="#3BACE4" transform="translate(0,0)"/>
<path d="" fill="#3BABE3" transform="translate(0,0)"/>
<path d="" fill="#3CB2EC" transform="translate(0,0)"/>
<path d="" fill="#3BABE4" transform="translate(0,0)"/>
<path d="" fill="#3CB0EC" transform="translate(0,0)"/>
<path d="" fill="#3DB6F1" transform="translate(0,0)"/>
<path d="" fill="#3BB6F3" transform="translate(0,0)"/>
<path d="" fill="#3DB5F0" transform="translate(0,0)"/>
<path d="" fill="#3AABE7" transform="translate(0,0)"/>
<path d="" fill="#3EB7F4" transform="translate(0,0)"/>
<path d="" fill="#3EB5F0" transform="translate(0,0)"/>
<path d="" fill="#3BACE6" transform="translate(0,0)"/>
<path d="" fill="#3DB3EF" transform="translate(0,0)"/>
<path d="" fill="#3AB0EB" transform="translate(0,0)"/>
<path d="" fill="#39A9E6" transform="translate(0,0)"/>
<path d="" fill="#3BB0ED" transform="translate(0,0)"/>
<path d="" fill="#39ACE7" transform="translate(0,0)"/>
<path d="" fill="#3CACE7" transform="translate(0,0)"/>
<path d="" fill="#3BB0EB" transform="translate(0,0)"/>
<path d="" fill="#3CB3F1" transform="translate(0,0)"/>
<path d="" fill="#3BAFE7" transform="translate(0,0)"/>
<path d="" fill="#3BB1EB" transform="translate(0,0)"/>
<path d="" fill="#3CB0EC" transform="translate(0,0)"/>
<path d="" fill="#3BB1EB" transform="translate(0,0)"/>
<path d="" fill="#3BB2ED" transform="translate(0,0)"/>
<path d="" fill="#3DB4EF" transform="translate(0,0)"/>
<path d="" fill="#3DB4EF" transform="translate(0,0)"/>
<path d="" fill="#3DB1EA" transform="translate(0,0)"/>
<path d="" fill="#3EB1EC" transform="translate(0,0)"/>
<path d="" fill="#3CAFEC" transform="translate(0,0)"/>
<path d="" fill="#3AAFEC" transform="translate(0,0)"/>
<path d="" fill="#3AAEE8" transform="translate(0,0)"/>
<path d="" fill="#3BABE7" transform="translate(0,0)"/>
<path d="" fill="#3CAEE7" transform="translate(0,0)"/>
<path d="" fill="#3CAEEC" transform="translate(0,0)"/>
<path d="" fill="#3CAFEC" transform="translate(0,0)"/>
<path d="" fill="#3CB1EE" transform="translate(0,0)"/>
<path d="" fill="#3CAEE6" transform="translate(0,0)"/>
<path d="" fill="#3CAFED" transform="translate(0,0)"/>
<path d="" fill="#3BAFEE" transform="translate(0,0)"/>
<path d="" fill="#3BADE8" transform="translate(0,0)"/>
<path d="" fill="#39B3F0" transform="translate(0,0)"/>
<path d="" fill="#3AAFEB" transform="translate(0,0)"/>
<path d="" fill="#3AACE6" transform="translate(0,0)"/>
<path d="" fill="#3DADE8" transform="translate(0,0)"/>
<path d="" fill="#3BAEE5" transform="translate(0,0)"/>
<path d="" fill="#3BB1EB" transform="translate(0,0)"/>
<path d="" fill="#3CABE7" transform="translate(0,0)"/>
<path d="" fill="#3BB0ED" transform="translate(0,0)"/>
<path d="" fill="#3CB0EC" transform="translate(0,0)"/>
<path d="" fill="#3AB1ED" transform="translate(0,0)"/>
<path d="" fill="#3AADE5" transform="translate(0,0)"/>
<path d="" fill="#3DB1EF" transform="translate(0,0)"/>
<path d="" fill="#3BABE8" transform="translate(0,0)"/>
<path d="" fill="#3BADE7" transform="translate(0,0)"/>
<path d="" fill="#3AADE6" transform="translate(0,0)"/>
<path d="" fill="#3BABE7" transform="translate(0,0)"/>
<path d="" fill="#3AAFEF" transform="translate(0,0)"/>
<path d="" fill="#3AB1ED" transform="translate(0,0)"/>
<path d="" fill="#3BB1EE" transform="translate(0,0)"/>
<path d="" fill="#3DADEA" transform="translate(0,0)"/>
<path d="" fill="#3CACE7" transform="translate(0,0)"/>
<path d="" fill="#3BB0EE" transform="translate(0,0)"/>
<path d="" fill="#3BACE7" transform="translate(0,0)"/>
<path d="" fill="#3CB0EE" transform="translate(0,0)"/>
<path d="" fill="#3BACE5" transform="translate(0,0)"/>
<path d="" fill="#3AB2F0" transform="translate(0,0)"/>
<path d="" fill="#3CADE8" transform="translate(0,0)"/>
<path d="" fill="#3AB3EF" transform="translate(0,0)"/>
<path d="" fill="#3BB1EF" transform="translate(0,0)"/>
<path d="" fill="#3AB2EF" transform="translate(0,0)"/>
<path d="" fill="#3BABE7" transform="translate(0,0)"/>
<path d="" fill="#3DABE7" transform="translate(0,0)"/>
<path d="" fill="#3AAEE7" transform="translate(0,0)"/>
<path d="" fill="#3BB2EE" transform="translate(0,0)"/>
<path d="" fill="#3CABE6" transform="translate(0,0)"/>
<path d="" fill="#3CB1ED" transform="translate(0,0)"/>
<path d="" fill="#3CACEA" transform="translate(0,0)"/>
<path d="" fill="#3DB2EF" transform="translate(0,0)"/>
<path d="" fill="#3AAAE5" transform="translate(0,0)"/>
<path d="" fill="#3BAEE5" transform="translate(0,0)"/>
<path d="" fill="#3BB2EE" transform="translate(0,0)"/>
<path d="" fill="#39B2EF" transform="translate(0,0)"/>
<path d="" fill="#3AB5EF" transform="translate(0,0)"/>
<path d="" fill="#3BAAE3" transform="translate(0,0)"/>
<path d="" fill="#3CABE6" transform="translate(0,0)"/>
<path d="" fill="#3AA9E5" transform="translate(0,0)"/>
<path d="" fill="#3EAAE6" transform="translate(0,0)"/>
<path d="" fill="#3CABE5" transform="translate(0,0)"/>
<path d="" fill="#3AACE4" transform="translate(0,0)"/>
<path d="" fill="#3BAAE1" transform="translate(0,0)"/>
<path d="" fill="#3CB4F1" transform="translate(0,0)"/>
<path d="" fill="#3EB5F0" transform="translate(0,0)"/>
<path d="" fill="#3EB3F0" transform="translate(0,0)"/>
<path d="" fill="#3EB5F1" transform="translate(0,0)"/>
<path d="" fill="#3BB4F2" transform="translate(0,0)"/>
<path d="" fill="#3DB6F1" transform="translate(0,0)"/>
<path d="" fill="#3DB5F3" transform="translate(0,0)"/>
<path d="" fill="#3BB5F0" transform="translate(0,0)"/>
<path d="" fill="#3BABE4" transform="translate(0,0)"/>
<path d="" fill="#3CB5F0" transform="translate(0,0)"/>
<path d="" fill="#3FA9E2" transform="translate(0,0)"/>
<path d="" fill="#3CAAE0" transform="translate(0,0)"/>
<path d="" fill="#3DB6F1" transform="translate(0,0)"/>
<path d="" fill="#3CB4EF" transform="translate(0,0)"/>
<path d="" fill="#3CB3F0" transform="translate(0,0)"/>
<path d="" fill="#38B1EF" transform="translate(0,0)"/>
<path d="" fill="#3DB5F1" transform="translate(0,0)"/>
<path d="" fill="#3AB3F1" transform="translate(0,0)"/>
<path d="" fill="#3EB6F0" transform="translate(0,0)"/>
<path d="" fill="#3CB4F2" transform="translate(0,0)"/>
<path d="" fill="#3EAAE2" transform="translate(0,0)"/>
<path d="" fill="#3DB3F0" transform="translate(0,0)"/>
<path d="" fill="#3FA9E0" transform="translate(0,0)"/>
<path d="" fill="#3CAAE1" transform="translate(0,0)"/>
<path d="" fill="#3CAEE3" transform="translate(0,0)"/>
<path d="" fill="#3DB3EE" transform="translate(0,0)"/>
<path d="" fill="#3CB3EE" transform="translate(0,0)"/>
<path d="" fill="#3DACE5" transform="translate(0,0)"/>
<path d="" fill="#3DABE3" transform="translate(0,0)"/>
<path d="" fill="#3CAAE0" transform="translate(0,0)"/>
<path d="" fill="#40A6DB" transform="translate(0,0)"/>
<path d="" fill="#3FA8E2" transform="translate(0,0)"/>
</svg>
